#!OML:ASF F:\VICON\USERDATA\INSTALL\Justin_Nancy\Justin_Nancy.ASF
:FULLY-SPECIFIED
:DEGREES
1
root 14.1842 16.9698 -31.4831 -1.54049 -2.74655 1.07771
lowerback 11.6935 -0.304718 -1.17674
upperback 0.251624 -0.365435 3.07157
thorax -6.27843 -0.0967542 3.97107
lowerneck -15.8798 -2.68377 -8.98258
upperneck 16.5725 -2.33529 4.30223
head 7.90295 -1.26128 2.63784
rclavicle 8.44835e-015 -1.43125e-014
rhumerus -53.0499 10.6399 -91.0809
rradius 119.304
rwrist -11.5827
rhand -5.38204 22.0945
rfingers 7.12502
rthumb 20.4263 -6.85113
lclavicle 8.44835e-015 -1.43125e-014
lhumerus -41.4942 -6.48747 96.7222
lradius 103.969
lwrist 15.599
lhand -18.9871 5.9547
lfingers 7.12502
lthumb 7.31761 35.8082
rfemur -25.8458 0.231723 25.9869
rtibia 41.4094
rfoot -9.26607 -10.676
rtoes 1.10634
lfemur 2.10968 -2.19567 -21.3718
ltibia 74.1696
lfoot 19.5684 -5.96163
ltoes 13.3984
2
root 14.1766 16.9026 -31.1066 -1.70098 -2.71239 0.147466
lowerback 11.9263 -0.226797 -0.113056
upperback 0.668779 -0.117099 3.20961
thorax -5.98798 -0.0115567 3.46691
lowerneck -17.3121 -2.89389 -8.81708
upperneck 17.1502 -2.54778 4.35272
head 8.36199 -1.33951 2.60129
rclavicle 4.96962e-016 4.77083e-014
rhumerus -50.3599 11.2686 -90.598
rradius 118.013
rwrist -12.4051
rhand -5.62607 22.2068
rfingers 7.12502
rthumb 20.1918 -6.76382
lclavicle 4.96962e-016 4.77083e-014
lhumerus -40.8601 -6.16194 96.7522
lradius 102.693
lwrist 16.8101
lhand -19.2028 6.42147
lfingers 7.12502
lthumb 7.10935 36.2821
rfemur -25.2005 0.304719 27.0552
rtibia 43.3187
rfoot -11.0352 -11.5881
rtoes -0.309072
lfemur -0.1943 -1.55209 -19.5563
ltibia 77.5637
lfoot 17.2243 -5.7811
ltoes 9.31788
3
root 14.169 16.8359 -30.738 -1.75173 -2.67891 -0.72019
lowerback 12.0774 -0.258746 0.605208
upperback 0.829526 -0.0435323 3.54227
thorax -5.90806 0.00782935 3.39913
lowerneck -17.87 -2.79742 -8.90589
upperneck 17.5491 -2.37258 4.48598
head 8.58583 -1.24886 2.68552
rclavicle 5.56597e-015 -1.51076e-014
rhumerus -48.2324 12.5262 -90.085
rradius 116.754
rwrist -13.2085
rhand -6.25633 22.4145
rfingers 7.12502
rthumb 19.5859 -6.61888
lclavicle 5.56597e-015 -1.51076e-014
lhumerus -40.6276 -5.20701 96.9036
lradius 101.273
lwrist 17.9853
lhand -19.5929 6.96026
lfingers 7.12502
lthumb 6.73283 36.8332
rfemur -24.5251 0.367897 28.0387
rtibia 44.9237
rfoot -12.6208 -12.2881
rtoes -1.75358
lfemur -2.70911 -0.842596 -17.8288
ltibia 80.6768
lfoot 12.2859 -5.72793
ltoes -7.58349
4
root 14.1637 16.7734 -30.3708 -1.71271 -2.35888 -1.20576
lowerback 11.8592 -0.376126 0.958309
upperback 0.909503 -0.146385 3.79284
thorax -5.69671 -0.0505471 3.47649
lowerneck -17.3366 -2.85257 -8.99638
upperneck 16.9554 -2.45538 4.44069
head 8.2977 -1.29531 2.67015
rclavicle 3.37934e-015 -2.14687e-014
rhumerus -46.2665 13.8733 -89.4944
rradius 115.434
rwrist -13.8451
rhand -6.79499 23.4617
rfingers 7.12502
rthumb 19.068 -5.62359
lclavicle 3.37934e-015 -2.14687e-014
lhumerus -40.2363 -4.15301 97.0186
lradius 99.6787
lwrist 19.4892
lhand -19.6753 7.92245
lfingers 7.12502
lthumb 6.6533 37.7979
rfemur -23.845 0.134173 28.5543
rtibia 46.3771
rfoot -14.1971 -12.6256
rtoes -2.23918
lfemur -5.43255 -0.404828 -16.6649
ltibia 83.4929
lfoot 11.3132 -5.4922
ltoes -6.84155
5
root 14.1581 16.717 -30.0021 -1.65069 -1.92739 -1.3113
lowerback 11.4585 -0.44396 1.01323
upperback 0.972894 -0.241874 3.84727
thorax -5.4009 -0.100442 3.50954
lowerneck -16.6949 -2.89372 -8.93739
upperneck 16.4947 -2.56697 4.37091
head 8.03671 -1.35126 2.62169
rclavicle -1.30204e-014 -3.33958e-014
rhumerus -44.3093 15.0082 -89.0263
rradius 114.48
rwrist -14.2922
rhand -7.26499 23.1351
rfingers 7.12502
rthumb 18.616 -5.99409
lclavicle -1.30204e-014 -3.33958e-014
lhumerus -41.1914 -3.29471 96.9644
lradius 99.0398
lwrist 21.4307
lhand -19.3333 7.92778
lfingers 7.12502
lthumb 6.98345 37.7926
rfemur -23.0253 -0.193829 28.6545
rtibia 47.5263
rfoot -15.6503 -12.9174
rtoes -1.62786
lfemur -8.24533 -0.0152601 -16.0009
ltibia 85.9293
lfoot 9.79555 -5.64087
ltoes -6.84054
6
root 14.1507 16.6643 -29.6373 -1.7275 -1.89212 -1.25742
lowerback 11.5339 -0.270924 0.868466
upperback 0.971116 -0.0286042 3.83079
thorax -5.45616 0.00828603 3.54161
lowerneck -16.3533 -2.97622 -8.85252
upperneck 16.2776 -2.72581 4.34841
head 7.91408 -1.42393 2.58115
rclavicle 1.12313e-014 -3.18055e-014
rhumerus -42.8033 15.9353 -88.7404
rradius 114.168
rwrist -13.6143
rhand -8.12145 20.289
rfingers 7.12502
rthumb 17.792 -8.91707
lclavicle 1.12313e-014 -3.18055e-014
lhumerus -41.8835 -2.74977 96.8633
lradius 98.434
lwrist 22.6937
lhand -17.8915 9.00522
lfingers 7.12502
lthumb 8.37505 38.8192
rfemur -21.8866 -0.31876 28.602
rtibia 48.3276
rfoot -17.1375 -13.3047
rtoes -1.44507
lfemur -10.7633 0.764072 -15.5501
ltibia 87.9335
lfoot 12.3085 -5.31651
ltoes 7.23598
7
root 14.1402 16.6226 -29.2766 -1.86431 -2.2716 -1.29422
lowerback 11.8333 0.0805689 0.711639
upperback 1.00162 0.431584 3.92065
thorax -5.61861 0.240566 3.65486
lowerneck -16.4618 -3.05819 -9.04427
upperneck 16.2507 -2.81013 4.50683
head 7.9354 -1.45867 2.65491
rclavicle -7.45443e-015 -9.54166e-015
rhumerus -41.6355 16.5758 -88.1997
rradius 114.153
rwrist -13.0698
rhand -7.33893 19.2679
rfingers 7.12502
rthumb 18.5448 -9.86812
lclavicle -7.45443e-015 -9.54166e-015
lhumerus -42.5226 -2.60421 97.1517
lradius 97.8234
lwrist 23.0194
lhand -18.7646 10.1622
lfingers 7.12502
lthumb 7.53233 40.0081
rfemur -20.5175 -0.214516 28.6916
rtibia 48.7836
rfoot -18.3559 -13.9076
rtoes -4.12715
lfemur -13.1792 2.05965 -14.9812
ltibia 89.5228
lfoot 6.50987 -4.74131
ltoes -13.4078
8
root 14.1337 16.5976 -28.9131 -2.05623 -2.36923 -1.49471
lowerback 12.0562 0.312767 0.770537
upperback 1.09378 0.760917 4.08097
thorax -5.66699 0.402824 3.73764
lowerneck -16.7002 -3.10841 -9.07209
upperneck 16.4963 -2.83741 4.4279
head 8.06087 -1.48196 2.6301
rclavicle 7.95139e-015 6.83819e-014
rhumerus -40.658 17.1456 -87.6668
rradius 114.472
rwrist -12.411
rhand -6.26697 19.6554
rfingers 7.12502
rthumb 19.5757 -9.37903
lclavicle 7.95139e-015 6.83819e-014
lhumerus -43.1993 -2.71571 97.6492
lradius 97.1853
lwrist 22.141
lhand -21.1377 9.92263
lfingers 7.12502
lthumb 5.24142 39.8378
rfemur -18.8326 -0.317497 28.9327
rtibia 48.7699
rfoot -19.3382 -14.5505
rtoes -6.47827
lfemur -15.713 3.15823 -14.3425
ltibia 90.7257
lfoot 5.5835 -4.76215
ltoes -13.0943
9
root 14.1354 16.573 -28.5513 -1.95099 -2.0799 -1.91916
lowerback 12.1169 0.445602 1.21683
upperback 1.01481 1.01264 4.23327
thorax -5.79523 0.51887 3.60432
lowerneck -17.0551 -3.2824 -9.01093
upperneck 17.2158 -3.04937 4.32164
head 8.37835 -1.59539 2.56136
rclavicle -3.67752e-015 -2.3059e-014
rhumerus -39.9212 17.4164 -87.2155
rradius 115.16
rwrist -12.0191
rhand -5.85259 20.703
rfingers 7.12502
rthumb 19.9741 -8.29042
lclavicle -3.67752e-015 -2.3059e-014
lhumerus -44.0083 -3.2125 98.0523
lradius 96.9988
lwrist 21.6057
lhand -22.5361 9.85534
lfingers 7.12502
lthumb 3.89107 39.7996
rfemur -17.3966 -0.640394 29.3763
rtibia 48.5561
rfoot -20.2023 -15.0142
rtoes -7.26616
lfemur -18.2212 3.76193 -13.5819
ltibia 91.6639
lfoot 4.90749 -4.95965
ltoes -9.31311
10
root 14.1313 16.6001 -28.1778 -1.76 -2.06584 -2.4275
lowerback 12.1731 0.679416 1.80917
upperback 0.909042 1.41731 4.33175
thorax -5.94961 0.70461 3.30422
lowerneck -17.3215 -3.53123 -9.08483
upperneck 17.5821 -3.37871 4.44171
head 8.57698 -1.74505 2.57339
rclavicle 4.87022e-015 -9.54166e-015
rhumerus -39.1881 17.377 -86.7395
rradius 116.158
rwrist -13.0966
rhand -4.76288 23.6808
rfingers 7.12502
rthumb 21.0212 -5.1999
lclavicle 4.87022e-015 -9.54166e-015
lhumerus -45.0272 -3.72221 98.2939
lradius 97.4444
lwrist 21.4561
lhand -22.6391 9.96692
lfingers 7.12502
lthumb 3.7916 39.9129
rfemur -15.7018 -0.489332 29.9329
rtibia 47.9767
rfoot -21.0448 -15.4738
rtoes -8.02513
lfemur -20.9246 4.63822 -12.8217
ltibia 91.9915
lfoot 5.98971 -5.37921
ltoes -0.171027
11
root 14.1349 16.5741 -27.8193 -1.51356 -2.35606 -3.02247
lowerback 11.9428 0.966275 2.52025
upperback 0.900957 1.88697 4.3984
thorax -5.8306 0.917703 2.89329
lowerneck -17.4462 -3.67167 -9.26912
upperneck 17.4776 -3.59889 4.86981
head 8.59076 -1.81336 2.72005
rclavicle 7.65321e-015 2.94201e-014
rhumerus -38.5027 17.4042 -86.5508
rradius 117.355
rwrist -14.4461
rhand -3.89944 23.5672
rfingers 7.12502
rthumb 21.8505 -5.2191
lclavicle 7.65321e-015 2.94201e-014
lhumerus -45.9524 -4.24628 98.3818
lradius 98.0594
lwrist 21.3871
lhand -22.3766 9.51377
lfingers 7.12502
lthumb 4.04513 39.4551
rfemur -14.1574 0.0462378 30.6117
rtibia 47.4174
rfoot -21.6645 -15.9701
rtoes -8.76281
lfemur -23.2304 5.88337 -11.9704
ltibia 92.2518
lfoot 0.94023 -5.50817
ltoes -14.9903
